<mxfile host="app.diagrams.net" modified="2024-05-13T12:02:58.137Z" agent="Mozilla/5.0 (Macintosh; Intel Mac OS X 10_15_7) AppleWebKit/537.36 (KHTML, like Gecko) Chrome/124.0.0.0 Safari/537.36" etag="M6gLQmwE44FM02ysSJOk" version="24.4.0" type="github">
  <diagram id="C5RBs43oDa-KdzZeNtuy" name="Page-1">
    <mxGraphModel dx="1368" dy="2037" grid="1" gridSize="10" guides="1" tooltips="1" connect="1" arrows="1" fold="1" page="1" pageScale="1" pageWidth="827" pageHeight="1169" math="0" shadow="0">
      <root>
        <mxCell id="WIyWlLk6GJQsqaUBKTNV-0" />
        <mxCell id="WIyWlLk6GJQsqaUBKTNV-1" parent="WIyWlLk6GJQsqaUBKTNV-0" />
        <mxCell id="GXRfaDreQqY3jcw3frXu-4" style="rounded=0;orthogonalLoop=1;jettySize=auto;html=1;entryX=0;entryY=0.5;entryDx=0;entryDy=0;strokeColor=default;endArrow=none;endFill=0;" edge="1" parent="WIyWlLk6GJQsqaUBKTNV-1" source="GXRfaDreQqY3jcw3frXu-1" target="GXRfaDreQqY3jcw3frXu-3">
          <mxGeometry relative="1" as="geometry" />
        </mxCell>
        <mxCell id="GXRfaDreQqY3jcw3frXu-8" style="rounded=0;orthogonalLoop=1;jettySize=auto;html=1;entryX=0;entryY=0.5;entryDx=0;entryDy=0;endArrow=none;endFill=0;" edge="1" parent="WIyWlLk6GJQsqaUBKTNV-1" source="GXRfaDreQqY3jcw3frXu-1" target="GXRfaDreQqY3jcw3frXu-5">
          <mxGeometry relative="1" as="geometry" />
        </mxCell>
        <mxCell id="GXRfaDreQqY3jcw3frXu-1" value="Клиент" style="shape=umlActor;verticalLabelPosition=bottom;verticalAlign=top;html=1;outlineConnect=0;" vertex="1" parent="WIyWlLk6GJQsqaUBKTNV-1">
          <mxGeometry x="180" y="190" width="50" height="100" as="geometry" />
        </mxCell>
        <mxCell id="GXRfaDreQqY3jcw3frXu-2" value="Админ" style="shape=umlActor;verticalLabelPosition=bottom;verticalAlign=top;html=1;outlineConnect=0;" vertex="1" parent="WIyWlLk6GJQsqaUBKTNV-1">
          <mxGeometry x="180" y="715" width="50" height="100" as="geometry" />
        </mxCell>
        <mxCell id="GXRfaDreQqY3jcw3frXu-3" value="Зарегестрироваться/авторизоваться&lt;br&gt;&amp;nbsp;в ЛК" style="ellipse;whiteSpace=wrap;html=1;" vertex="1" parent="WIyWlLk6GJQsqaUBKTNV-1">
          <mxGeometry x="340" y="-20" width="135" height="90" as="geometry" />
        </mxCell>
        <mxCell id="GXRfaDreQqY3jcw3frXu-5" value="Просмотреть каталог" style="ellipse;whiteSpace=wrap;html=1;" vertex="1" parent="WIyWlLk6GJQsqaUBKTNV-1">
          <mxGeometry x="435" y="80" width="135" height="90" as="geometry" />
        </mxCell>
        <mxCell id="GXRfaDreQqY3jcw3frXu-6" value="Отфильтровать каталог" style="ellipse;whiteSpace=wrap;html=1;" vertex="1" parent="WIyWlLk6GJQsqaUBKTNV-1">
          <mxGeometry x="680" y="80" width="135" height="90" as="geometry" />
        </mxCell>
        <mxCell id="GXRfaDreQqY3jcw3frXu-7" value="Купить продукт" style="ellipse;whiteSpace=wrap;html=1;" vertex="1" parent="WIyWlLk6GJQsqaUBKTNV-1">
          <mxGeometry x="360" y="420" width="135" height="90" as="geometry" />
        </mxCell>
        <mxCell id="GXRfaDreQqY3jcw3frXu-10" style="rounded=0;orthogonalLoop=1;jettySize=auto;html=1;entryX=0;entryY=0;entryDx=0;entryDy=0;endArrow=none;endFill=0;" edge="1" parent="WIyWlLk6GJQsqaUBKTNV-1" source="GXRfaDreQqY3jcw3frXu-1" target="GXRfaDreQqY3jcw3frXu-7">
          <mxGeometry relative="1" as="geometry">
            <mxPoint x="250" y="250" as="sourcePoint" />
            <mxPoint x="490" y="295" as="targetPoint" />
          </mxGeometry>
        </mxCell>
        <mxCell id="GXRfaDreQqY3jcw3frXu-12" value="Просмотреть информацию о товаре" style="ellipse;whiteSpace=wrap;html=1;" vertex="1" parent="WIyWlLk6GJQsqaUBKTNV-1">
          <mxGeometry x="445" y="195" width="135" height="90" as="geometry" />
        </mxCell>
        <mxCell id="GXRfaDreQqY3jcw3frXu-14" value="Добавить продукт в корзину" style="ellipse;whiteSpace=wrap;html=1;" vertex="1" parent="WIyWlLk6GJQsqaUBKTNV-1">
          <mxGeometry x="420" y="310" width="135" height="90" as="geometry" />
        </mxCell>
        <mxCell id="GXRfaDreQqY3jcw3frXu-15" style="rounded=0;orthogonalLoop=1;jettySize=auto;html=1;entryX=0.019;entryY=0.308;entryDx=0;entryDy=0;endArrow=none;endFill=0;entryPerimeter=0;" edge="1" parent="WIyWlLk6GJQsqaUBKTNV-1" source="GXRfaDreQqY3jcw3frXu-1" target="GXRfaDreQqY3jcw3frXu-14">
          <mxGeometry relative="1" as="geometry">
            <mxPoint x="240" y="261" as="sourcePoint" />
            <mxPoint x="440" y="345" as="targetPoint" />
          </mxGeometry>
        </mxCell>
        <mxCell id="GXRfaDreQqY3jcw3frXu-16" value="Войти в ЛК админа" style="ellipse;whiteSpace=wrap;html=1;" vertex="1" parent="WIyWlLk6GJQsqaUBKTNV-1">
          <mxGeometry x="380" y="585" width="135" height="90" as="geometry" />
        </mxCell>
        <mxCell id="GXRfaDreQqY3jcw3frXu-17" style="rounded=0;orthogonalLoop=1;jettySize=auto;html=1;entryX=0;entryY=0.5;entryDx=0;entryDy=0;endArrow=none;endFill=0;" edge="1" parent="WIyWlLk6GJQsqaUBKTNV-1" source="GXRfaDreQqY3jcw3frXu-2" target="GXRfaDreQqY3jcw3frXu-16">
          <mxGeometry relative="1" as="geometry">
            <mxPoint x="240" y="725" as="sourcePoint" />
            <mxPoint x="330" y="428" as="targetPoint" />
          </mxGeometry>
        </mxCell>
        <mxCell id="GXRfaDreQqY3jcw3frXu-20" value="" style="endArrow=none;dashed=1;html=1;rounded=0;entryX=0;entryY=0.5;entryDx=0;entryDy=0;exitX=1;exitY=0.5;exitDx=0;exitDy=0;endFill=0;startArrow=classic;startFill=1;" edge="1" parent="WIyWlLk6GJQsqaUBKTNV-1" source="GXRfaDreQqY3jcw3frXu-5" target="GXRfaDreQqY3jcw3frXu-6">
          <mxGeometry width="50" height="50" relative="1" as="geometry">
            <mxPoint x="440" y="130" as="sourcePoint" />
            <mxPoint x="490" y="80" as="targetPoint" />
          </mxGeometry>
        </mxCell>
        <mxCell id="GXRfaDreQqY3jcw3frXu-22" value="&amp;lt;&amp;lt;Extend&amp;gt;&amp;gt;" style="edgeLabel;html=1;align=center;verticalAlign=middle;resizable=0;points=[];rotation=0;" vertex="1" connectable="0" parent="GXRfaDreQqY3jcw3frXu-20">
          <mxGeometry relative="1" as="geometry">
            <mxPoint as="offset" />
          </mxGeometry>
        </mxCell>
        <mxCell id="GXRfaDreQqY3jcw3frXu-23" style="rounded=0;orthogonalLoop=1;jettySize=auto;html=1;endArrow=none;endFill=0;" edge="1" parent="WIyWlLk6GJQsqaUBKTNV-1">
          <mxGeometry relative="1" as="geometry">
            <mxPoint x="240" y="238" as="sourcePoint" />
            <mxPoint x="440" y="240" as="targetPoint" />
          </mxGeometry>
        </mxCell>
        <mxCell id="GXRfaDreQqY3jcw3frXu-24" value="Добавить продукт(ы) &lt;br&gt;в каталог" style="ellipse;whiteSpace=wrap;html=1;" vertex="1" parent="WIyWlLk6GJQsqaUBKTNV-1">
          <mxGeometry x="400" y="695" width="135" height="90" as="geometry" />
        </mxCell>
        <mxCell id="GXRfaDreQqY3jcw3frXu-25" style="rounded=0;orthogonalLoop=1;jettySize=auto;html=1;entryX=0;entryY=0.5;entryDx=0;entryDy=0;endArrow=none;endFill=0;" edge="1" parent="WIyWlLk6GJQsqaUBKTNV-1" source="GXRfaDreQqY3jcw3frXu-2" target="GXRfaDreQqY3jcw3frXu-24">
          <mxGeometry relative="1" as="geometry">
            <mxPoint x="240" y="735" as="sourcePoint" />
            <mxPoint x="340" y="650" as="targetPoint" />
          </mxGeometry>
        </mxCell>
        <mxCell id="GXRfaDreQqY3jcw3frXu-26" value="Просмотреть оплаченные заявки" style="ellipse;whiteSpace=wrap;html=1;" vertex="1" parent="WIyWlLk6GJQsqaUBKTNV-1">
          <mxGeometry x="400" y="805" width="135" height="90" as="geometry" />
        </mxCell>
        <mxCell id="GXRfaDreQqY3jcw3frXu-27" style="rounded=0;orthogonalLoop=1;jettySize=auto;html=1;entryX=0;entryY=0.5;entryDx=0;entryDy=0;endArrow=none;endFill=0;" edge="1" parent="WIyWlLk6GJQsqaUBKTNV-1" source="GXRfaDreQqY3jcw3frXu-2" target="GXRfaDreQqY3jcw3frXu-26">
          <mxGeometry relative="1" as="geometry">
            <mxPoint x="230" y="725" as="sourcePoint" />
            <mxPoint x="424" y="740" as="targetPoint" />
          </mxGeometry>
        </mxCell>
      </root>
    </mxGraphModel>
  </diagram>
</mxfile>
